<svg height="511pt" viewBox="0 0 511.9992 511" width="511pt" xmlns="http://www.w3.org/2000/svg"><path d="m481.53125 110.785156c-25.308594-46.832031-67.960938-80.757812-123.347656-98.105468-40.511719-12.6914068-73.648438-12.226563-76.550782-12.160157-54.21875.035157-101.515624 22.785157-123.453124 59.390625-2.894532 4.828125-5.308594 9.835938-7.242188 14.988282-10.335938 9.839843-56.960938 58.03125-56.960938 126.359374 0 45.515626-21.894531 69.277344-34.949218 79.390626-4.875 3.773437-7.511719 9.707031-7.058594 15.863281.453125 6.164062 3.9375 11.644531 9.3125 14.671875 4.921875 2.765625 10.457031 5.421875 15.808594 7.988281 4.730468 2.269531 11.445312 5.492187 14.722656 7.589844v18.800781c0 2.570312.992188 5.046875 2.769531 6.90625l19.460938 20.375-12.101563 11.421875c-2 1.886719-3.136718 4.519531-3.136718 7.269531v21.796875c0 25.148438 20.460937 45.609375 45.613281 45.609375h29.511719c19.457031 0 37.726562 9.523438 48.894531 25.519532l16.78125 23.773437c1.871093 2.65625 4.917969 4.234375 8.167969 4.234375h168.90625c3.210937 0 6.226562-1.542969 8.105468-4.148438 1.882813-2.601562 2.394532-5.949218 1.382813-9l-28.625-86.308593c18.578125-3.6875 36.015625-12.550781 50.132812-25.988281 36.671875-34.902344 58.582031-81.335938 63.355469-134.28125 4.359375-48.269532-6.121094-98.683594-29.5-141.957032zm-228.574219 381.683594-13.765625-19.5c-14.878906-21.304688-39.273437-34.027344-65.261718-34.027344h-29.511719c-14.125 0-25.613281-11.488281-25.613281-25.613281v-17.480469l16.277343-15.363281c1.9375-1.828125 3.0625-4.351563 3.132813-7.011719.070312-2.664062-.925782-5.242187-2.765625-7.167968l-23.640625-24.75v-18.273438c0-9.632812-9.8125-14.339844-26.066406-22.140625-4.265626-2.046875-8.648438-4.148437-12.53125-6.226563 16.082031-13.125 40.765624-41.738281 40.765624-93.65625 0-37.566406 16.71875-68.871093 31.222657-88.964843.792969 17.410156 6.0625 35.621093 15.808593 53.847656 25.648438 47.976563 70.320313 68.085937 106.214844 84.242187 34.144532 15.371094 53.472656 25.046876 53.625 45.160157.113282 14.769531-3.28125 25.636719-10.09375 32.296875-7.476562 7.3125-17.277344 7.492187-18.28125 7.492187-.070312 0-.085937 0-.085937 0-3.34375-.230469-6.5 1.230469-8.546875 3.898438-2.042969 2.671875-2.507813 6.195312-1.402344 9.371093.039062.121094.4375 1.261719 1.207031 3.144532 12.632813 31.078125 39.804688 53.855468 72.683594 60.929687 6.910156 1.488281 13.871094 2.230469 20.789063 2.273438l25.710937 77.519531zm180.933594-119.929688c-13.84375 13.175782-31.078125 20.800782-49.351563 22.230469-.621093-.015625-1.25.027344-1.878906.128907-7.273437.398437-14.695312-.175782-22.125-1.773438-23.566406-5.070312-42.859375-19.46875-54.171875-40.085938 5.675781-1.789062 12.179688-4.964843 18.039063-10.574218 11.070312-10.605469 16.605468-26.441406 16.445312-47.074219-.261718-33.914063-31.910156-48.160156-65.417968-63.242187-34.851563-15.6875-74.347657-33.46875-96.785157-75.433594-13.9375-26.070313-17.21875-50.855469-9.792969-72.585938.03125-.085937.058594-.167968.089844-.253906 1.628906-4.710938 3.753906-9.28125 6.390625-13.6875 18.363281-30.636719 59.144531-49.671875 106.429688-49.671875.09375 0 .1875 0 .285156-.003906.316406-.011719 31.808594-.761719 70.160156 11.25 51.03125 15.984375 88.621094 45.773437 111.726563 88.53125 38.441406 71.132812 45.433594 180.410156-30.042969 252.246093zm0 0"/><path d="m71.652344 370.976562c0-5.519531-4.476563-10-10-10h-51.652344c-5.523438 0-10 4.480469-10 10 0 5.523438 4.476562 10 10 10h51.652344c5.523437 0 10-4.476562 10-10zm0 0"/><path d="m65.503906 326.359375-29.015625-12.105469c-5.09375-2.128906-10.949219.277344-13.078125 5.375-2.125 5.097656.28125 10.953125 5.378906 13.078125l29.015626 12.109375c1.257812.523438 2.5625.773438 3.847656.773438 3.914062 0 7.628906-2.3125 9.230468-6.152344 2.125-5.097656-.28125-10.953125-5.378906-13.078125zm0 0"/><path d="m57.804688 397.140625-29.015626 12.105469c-5.097656 2.125-7.503906 7.980468-5.378906 13.078125 1.601563 3.839843 5.316406 6.152343 9.230469 6.152343 1.285156 0 2.589844-.25 3.847656-.773437l29.015625-12.105469c5.097656-2.128906 7.503906-7.984375 5.378906-13.078125-2.125-5.097656-7.984374-7.507812-13.078124-5.378906zm0 0"/><path d="m282.972656 48.449219c-5.390625.148437-9.71875 4.566406-9.71875 9.996093 0 5.519532 4.476563 10 10 10 .183594 0 .402344-.007812.585938-.019531 5.515625-.304687 9.734375-5.023437 9.429687-10.539062-.300781-5.429688-4.894531-9.621094-10.296875-9.4375zm0 0"/><path d="m343.929688 58.425781c-6.0625-1.898437-12.375-3.570312-18.757813-4.960937-5.398437-1.183594-10.726563 2.238281-11.902344 7.636718-1.179687 5.394532 2.238281 10.722657 7.636719 11.898438 5.808594 1.269531 11.542969 2.785156 17.042969 4.511719 38.671875 12.113281 66.871093 34.15625 83.820312 65.519531 1.808594 3.347656 5.25 5.25 8.808594 5.25 1.601563 0 3.230469-.390625 4.742187-1.203125 4.859376-2.628906 6.667969-8.695313 4.042969-13.554687-19.511719-36.105469-51.621093-61.371094-95.433593-75.097657zm0 0"/></svg>