<?xml version="1.0" encoding="iso-8859-1"?>
<!-- Generator: Adobe Illustrator 19.0.0, SVG Export Plug-In . SVG Version: 6.00 Build 0)  -->
<svg version="1.1" id="Capa_1" xmlns="http://www.w3.org/2000/svg" xmlns:xlink="http://www.w3.org/1999/xlink" x="0px" y="0px"
	 viewBox="0 0 512 512" style="enable-background:new 0 0 512 512;" xml:space="preserve">
<g>
	<g>
		<path d="M342.069,494.93C340.21,493.069,337.63,492,335,492s-5.21,1.069-7.07,2.93c-1.86,1.861-2.93,4.44-2.93,7.07
			s1.069,5.21,2.93,7.069c1.86,1.86,4.44,2.931,7.07,2.931s5.21-1.07,7.069-2.931C343.93,507.21,345,504.63,345,502
			S343.93,496.79,342.069,494.93z"/>
	</g>
</g>
<g>
	<g>
		<path d="M512,90c0-27.57-22.43-50-50-50h-14.254v-6c0-18.748-15.252-34-34-34s-34,15.252-34,34v6h-89.873v-6
			c0-18.748-15.252-34-34-34s-34,15.252-34,34v6H132v-6c0-18.748-15.252-34-34-34S64,15.252,64,34v6H50C22.43,40,0,62.43,0,90v372
			c0,27.57,22.43,50,50,50h243c5.522,0,10-4.478,10-10c0-5.522-4.478-10-10-10H50c-16.542,0-30-13.458-30-30V90
			c0-16.542,13.458-30,30-30h14v18.168c0,18.748,15.252,34,34,34c5.522,0,10-4.477,10-10c0-5.523-4.478-10-10-10
			c-7.72,0-14-6.28-14-14V60h137.873v18.168c0,18.748,15.252,34,34,34c5.522,0,10-4.477,10-10c0-5.523-4.478-10-10-10
			c-7.72,0-14-6.28-14-14V60h137.873v18.168c0,18.748,15.252,34,34,34c5.522,0,10-4.477,10-10c0-5.523-4.478-10-10-10
			c-7.72,0-14-6.28-14-14V60H462c16.542,0,30,13.458,30,30v274h-78c-27.57,0-50,22.43-50,50v88c0,4.045,2.437,7.691,6.173,9.239
			c1.237,0.512,2.537,0.761,3.825,0.761c2.603,0,5.16-1.016,7.073-2.929l128-128c2.154-2.155,3.169-5.127,2.878-8.06
			c0.033-0.333,0.051-0.67,0.051-1.011V90z M112,40H84v-6c0-7.72,6.28-14,14-14c7.72,0,14,6.28,14,14V40z M269.873,40h-28v-6
			c0-7.72,6.28-14,14-14c7.72,0,14,6.28,14,14V40z M427.746,40h-28v-6c0-7.72,6.28-14,14-14c7.72,0,14,6.28,14,14V40z M384,477.857
			V414c0-16.542,13.458-30,30-30h63.857L384,477.857z"/>
	</g>
</g>
<g>
	<g>
		<path d="M128,316H74v-54c0-5.523-4.478-10-10-10c-5.522,0-10,4.477-10,10v64c0,5.522,4.478,10,10,10h64c5.522,0,10-4.478,10-10
			C138,320.478,133.522,316,128,316z"/>
	</g>
</g>
<g>
	<g>
		<path d="M448,252h-64c-5.522,0-10,4.477-10,10v64c0,5.522,4.478,10,10,10h64c5.522,0,10-4.478,10-10v-64
			C458,256.477,453.522,252,448,252z M438,316h-44v-44h44V316z"/>
	</g>
</g>
<g>
	<g>
		<path d="M341.333,316h-54v-54c0-5.523-4.478-10-10-10c-5.522,0-10,4.477-10,10v64c0,5.522,4.478,10,10,10h64
			c5.522,0,10-4.478,10-10C351.333,320.478,346.855,316,341.333,316z"/>
	</g>
</g>
<g>
	<g>
		<path d="M234.667,316h-54v-54c0-5.523-4.478-10-10-10c-5.522,0-10,4.477-10,10v64c0,5.522,4.478,10,10,10h64
			c5.522,0,10-4.478,10-10C244.667,320.478,240.189,316,234.667,316z"/>
	</g>
</g>
<g>
	<g>
		<path d="M128,438H74v-54c0-5.522-4.478-10-10-10c-5.522,0-10,4.478-10,10v64c0,5.522,4.478,10,10,10h64c5.522,0,10-4.478,10-10
			C138,442.478,133.522,438,128,438z"/>
	</g>
</g>
<g>
	<g>
		<path d="M341.333,438h-54v-54c0-5.522-4.478-10-10-10c-5.522,0-10,4.478-10,10v64c0,5.522,4.478,10,10,10h64
			c5.522,0,10-4.478,10-10C351.333,442.478,346.855,438,341.333,438z"/>
	</g>
</g>
<g>
	<g>
		<path d="M234.667,438h-54v-54c0-5.522-4.478-10-10-10c-5.522,0-10,4.478-10,10v64c0,5.522,4.478,10,10,10h64
			c5.522,0,10-4.478,10-10C244.667,442.478,240.189,438,234.667,438z"/>
	</g>
</g>
<g>
	<g>
		<path d="M128,194H74v-54c0-5.523-4.478-10-10-10c-5.522,0-10,4.477-10,10v64c0,5.523,4.478,10,10,10h64c5.522,0,10-4.477,10-10
			S133.522,194,128,194z"/>
	</g>
</g>
<g>
	<g>
		<path d="M448,130h-64c-5.522,0-10,4.477-10,10v64c0,5.523,4.478,10,10,10h64c5.522,0,10-4.477,10-10v-64
			C458,134.477,453.522,130,448,130z M438,194h-44v-44h44V194z"/>
	</g>
</g>
<g>
	<g>
		<path d="M341.333,194h-54v-54c0-5.523-4.478-10-10-10c-5.522,0-10,4.477-10,10v64c0,5.523,4.478,10,10,10h64
			c5.522,0,10-4.477,10-10S346.855,194,341.333,194z"/>
	</g>
</g>
<g>
	<g>
		<path d="M234.667,194h-54v-54c0-5.523-4.478-10-10-10c-5.522,0-10,4.477-10,10v64c0,5.523,4.478,10,10,10h64
			c5.522,0,10-4.477,10-10S240.189,194,234.667,194z"/>
	</g>
</g>
<g>
</g>
<g>
</g>
<g>
</g>
<g>
</g>
<g>
</g>
<g>
</g>
<g>
</g>
<g>
</g>
<g>
</g>
<g>
</g>
<g>
</g>
<g>
</g>
<g>
</g>
<g>
</g>
<g>
</g>
</svg>
