<svg id="Layer_3" height="512" viewBox="0 0 64 64" width="512" xmlns="http://www.w3.org/2000/svg" data-name="Layer 3"><path d="m56 10h-43v7.417a5.033 5.033 0 0 1 2 1.6v-4.017a1 1 0 0 1 1-1 1 1 0 0 0 1-1 1 1 0 0 1 1-1h33a1 1 0 0 1 1 1 1 1 0 0 0 1 1 1 1 0 0 1 1 1v12a1 1 0 0 1 -1 1 1 1 0 0 0 -1 1 1 1 0 0 1 -1 1h-33a1 1 0 0 1 -1-1 1 1 0 0 0 -1-1 1 1 0 0 1 -1-1h-2v5h43z"/><circle cx="34" cy="21" r="4"/><path d="m19 27h-.783a3 3 0 0 1 .612 1h31.342a3.018 3.018 0 0 1 1.829-1.829v-10.342a3.018 3.018 0 0 1 -1.829-1.829h-31.342a3.018 3.018 0 0 1 -1.829 1.829v5.171h4a1 1 0 0 1 1 1v2a3 3 0 0 1 -3 3zm15-12a6 6 0 1 1 -6 6 6.006 6.006 0 0 1 6-6z"/><path d="m20 24v-1h-5a1 1 0 0 1 -1-1 3 3 0 0 0 -3-3h-2v-2h2v-3.382l-2.553 1.282a1 1 0 0 1 -.447.1h-5v10h5a1 1 0 0 1 .6.2l2.4 1.8v-1a1 1 0 0 1 1-1h7a1 1 0 0 0 1-1z"/><path d="m55 40h6v14h-6z"/><path d="m46.53 40h-1.294a2.6 2.6 0 0 0 -2.336 1.447 1 1 0 0 1 -.9.553h-7a1 1 0 0 0 0 2h7v2h-7a3 3 0 0 1 -2.911-2.308l-5.912-4.992a1.071 1.071 0 0 1 -.107-.106 1.752 1.752 0 0 0 -3.07 1.157v.193a1.752 1.752 0 0 0 .45 1.172l6.286 6.984a5.745 5.745 0 0 0 4.264 1.9l19 .949v-6.693a21.82 21.82 0 0 0 -1.264-2.107 7.324 7.324 0 0 0 -5.206-2.149z"/></svg>